<svg width="450" height="450" viewBox="0 0 450 450" fill="none" xmlns="http://www.w3.org/2000/svg">
<path d="M214.388 33.2106C212.772 36.6116 212.602 37.8869 213.537 40.0125C215.068 43.4985 216.386 43.711 217.916 40.7352C218.554 39.4173 218.766 38.4396 218.596 37.1217C218.426 35.2937 216.641 31.3826 215.918 31.1275C215.663 31.0425 215.025 31.9778 214.388 33.2106Z" fill="#FAFAFA"/>
<path d="M234.708 32.9555C232.625 36.2715 232.795 39.5874 235.218 41.7555C236.068 42.5207 236.111 42.5207 237.301 40.7352C238.789 38.4396 238.874 35.5063 237.514 32.7855C236.961 31.8077 236.409 31 236.238 31C236.068 31 235.388 31.8927 234.708 32.9555Z" fill="#FAFAFA"/>
<path d="M251.245 38.6946C247.462 42.9033 247.164 46.7293 250.225 51.023C251.118 52.2559 251.16 52.2984 251.968 51.5331C253.583 50.0877 254.859 46.9419 254.859 44.3061C254.859 41.8405 253.711 36.9516 253.158 36.9516C252.988 36.9516 252.138 37.7593 251.245 38.6946Z" fill="#FAFAFA"/>
<path d="M191.983 43.626C191.091 48.1322 191.516 50.0452 193.811 52.2133C194.917 53.2336 194.917 53.2336 195.512 52.4259C196.702 50.8105 197.212 48.1322 196.66 46.2617C196.192 44.6888 193.514 41.2028 192.791 41.2028C192.621 41.2028 192.281 42.3081 191.983 43.626Z" fill="#FAFAFA"/>
<path d="M216.215 46.0917C207.415 48.0897 200.741 51.7457 190.878 59.908C188.327 62.0336 184.969 64.3717 183.438 65.137L180.675 66.4973H172.811H164.946L161.332 68.0703C158.442 69.3031 157.039 69.6432 154.318 69.7707C150.152 70.0258 148.834 70.621 145.093 74.192C142.33 76.8702 139.864 78.2731 134.762 80.1011C129.789 81.9291 128.301 86.3504 130.766 92.0894L131.532 93.8749L132.892 93.1948C134.125 92.5996 134.465 92.5996 137.526 93.4498C142.415 94.7677 144.625 94.6402 150.534 92.5571C155.423 90.8566 155.848 90.8141 162.608 90.5165C170.132 90.1764 171.535 89.8363 174.086 87.6682C174.851 87.0305 176.041 85.7552 176.679 84.8199L177.912 83.162V84.3948C177.869 87.7107 174.383 91.7068 170.515 92.8547C169.112 93.2798 166.476 93.4923 162.65 93.4923C156.614 93.4923 155.211 93.7474 149.429 95.873C144.71 97.616 141.097 97.531 137.441 95.7029C134.72 94.3001 134.677 94.3001 132.934 94.9802C131.957 95.3629 130.681 96.3831 130.001 97.2334C126.94 101.272 124.815 102.42 121.541 101.782C120.393 101.57 119.331 100.804 117.375 98.8063C113.549 94.8102 110.446 93.8749 106.705 95.5754C105.089 96.2981 102.666 98.6363 102.666 99.444C102.666 100.379 104.452 100.124 105.897 98.9764C109.085 96.4682 111.849 97.0208 115.505 100.932C118.183 103.823 120.266 104.971 122.732 104.971C126.175 104.971 127.748 104.205 131.021 101.017L134.125 97.9986L135.315 99.1039C137.526 101.229 140.034 102.165 143.265 102.165C145.773 102.122 147.006 101.825 150.917 100.294L155.593 98.4237L164.096 98.1261C173.151 97.8285 173.661 97.7435 180.25 95.1078C186.372 92.6846 189.73 90.7291 200.018 83.7146C209.711 77.0403 211.921 75.8074 216.173 74.362C226.971 70.706 236.961 77.8055 234.878 87.7107C234.24 90.8991 232.327 93.3648 229.394 94.8527C225.738 96.7232 222.252 96.2981 219.148 93.5774C216.173 91.0692 215.535 89.3262 215.535 83.9272C215.535 78.5707 215.365 78.3581 212.389 79.8886C210.689 80.7388 210.646 80.7813 210.561 83.2045C210.391 88.2634 210.646 90.2614 211.921 92.8972C214.6 98.3812 220.721 101.995 227.438 101.995C231.009 101.995 234.41 101.059 239.129 98.7213C242.36 97.1483 243.763 96.1281 246.356 93.5348C251.84 88.0083 253.838 82.5243 253.455 73.9369L253.243 69.0906L254.263 70.3234C255.751 72.2364 257.707 76.4026 258.259 79.0383C258.557 80.3562 258.684 83.332 258.642 85.7552C258.514 88.4759 258.642 90.0914 258.897 90.0914C259.152 90.0489 260.767 89.7088 262.51 89.3262L265.699 88.561L265.826 84.9049C266.039 78.2306 264.083 72.2364 259.79 66.4973C257.537 63.479 247.674 54.1689 244.273 51.8733C240.957 49.6202 238.236 48.3023 234.028 46.9419C230.967 45.9216 229.564 45.7091 224.675 45.624C220.764 45.539 218.086 45.6666 216.215 46.0917ZM232.199 50.768C235.133 51.6182 239.724 53.9138 241.467 55.4018C242.53 56.2945 242.02 56.167 238.704 54.6365C233.687 52.2559 228.033 50.5979 223.867 50.2578C222.124 50.1303 221.019 49.8752 221.401 49.7477C222.592 49.3226 229.521 50.0028 232.199 50.768ZM227.608 61.3534C231.604 62.4587 234.495 64.2017 237.854 67.5601C241.425 71.1311 243.04 73.7669 244.06 77.8055C245.251 82.3542 244.315 87.8808 241.765 91.5368C240.744 93.0247 236.621 96.2556 236.281 95.873C236.196 95.788 236.706 94.8102 237.386 93.7049C238.321 92.217 239.001 91.6218 239.809 91.5368C241.042 91.4093 241.722 90.8991 240.999 90.644C239.384 90.0914 239.001 89.3687 239.384 87.7107C239.724 86.3504 240.022 86.0528 241.084 85.7977C243.848 85.245 244.23 84.1397 241.722 84.1397C239.767 84.1397 239.724 84.0972 239.384 81.589C239.086 79.761 239.129 79.6335 240.617 78.6982C242.19 77.6779 242.827 76.0625 241.297 76.9127C239.597 77.8055 238.151 77.4229 236.621 75.5949C235.345 74.0644 235.26 73.8094 235.856 73.1717C236.918 71.9388 237.854 69.7707 237.598 69.0906C237.216 68.0703 236.748 68.2828 235.77 69.8558C234.325 72.1939 233.815 72.449 232.157 71.6413C231.392 71.3012 230.286 70.791 229.734 70.621C228.799 70.2384 228.714 69.9833 228.714 67.3476C228.714 63.9891 228.033 63.309 227.353 65.9447C226.503 69.1331 226.163 69.3456 222.634 69.0055L219.573 68.708V67.0925C219.573 63.6916 217.916 61.821 217.831 65.0944C217.703 69.048 217.533 69.3031 214.132 70.4084C212.474 70.9611 210.433 71.7688 209.668 72.2364C207.925 73.2992 207.373 73.2992 207.033 72.2364C206.65 71.0461 204.737 68.8355 204.057 68.8355C203.589 68.8355 203.589 69.048 204.057 69.9833C204.397 70.6635 204.779 71.9388 204.949 72.9166L205.205 74.6596L202.144 76.8702C200.486 78.1031 199.04 79.0383 199.04 78.9533C196.872 74.5746 195.979 73.3417 195.342 73.7243C195.172 73.8519 195.257 74.6596 195.597 75.5098C195.894 76.4026 196.149 78.018 196.192 79.1233V81.0789L193.131 83.0769L190.028 85.0325L189.73 83.2895C189.39 81.2914 188.2 78.9958 187.35 78.6982C186.924 78.5707 186.882 78.8258 187.137 79.761C187.307 80.3987 187.477 82.1842 187.477 83.7146V86.4779L184.926 87.7958C183.523 88.561 181.951 89.2837 181.44 89.4112L180.505 89.7088L181.355 87.7532C181.951 86.4354 182.333 84.4373 182.461 81.8866L182.716 77.9755L185.266 76.7427C186.669 76.0625 190.963 73.3843 194.874 70.791C203.291 65.137 204.822 64.2017 208.733 62.6713C214.6 60.3331 221.912 59.823 227.608 61.3534ZM155.721 80.3562C155.211 81.334 154.233 82.3542 153.595 82.6943C152.277 83.3745 149.514 83.4595 148.579 82.8644C148.026 82.5243 148.026 82.3542 148.579 81.334C149.514 79.676 151.81 78.6132 154.445 78.6132H156.699L155.721 80.3562ZM138.036 85.245C137.398 85.6702 137.101 86.3078 137.101 87.2006C137.101 88.3059 137.016 88.4334 136.463 87.9658C136.123 87.6682 135.825 87.0731 135.825 86.6479C135.825 85.7977 137.356 84.5649 138.333 84.5649C138.801 84.5649 138.674 84.7774 138.036 85.245Z" fill="#FAFAFA"/>
<path d="M260.088 49.025C257.452 50.2578 256.559 51.7457 256.559 54.7641V56.8897L258.472 56.2095C261.363 55.2317 263.361 52.2984 263.361 48.94C263.361 47.7496 262.851 47.7496 260.088 49.025Z" fill="#FAFAFA"/>
<path d="M178.72 52.511C180.165 57.2723 181.271 58.3776 185.267 59.2278C186.414 59.4829 186.414 59.4829 186.414 57.2723C186.414 53.4462 184.076 51.0231 179.655 50.3004L177.955 50.0453L178.72 52.511Z" fill="#FAFAFA"/>
<path d="M270.035 53.1486C266.039 53.7438 263.871 55.4868 261.703 59.7805C261.235 60.7582 260.81 61.6935 260.81 61.821C260.81 61.9486 262.085 62.0336 263.701 62.0336C269.015 62.0336 271.821 59.908 273.734 54.4665C274.456 52.4259 274.626 52.4684 270.035 53.1486Z" fill="#FAFAFA"/>
<path d="M288.06 60.5457C285.68 61.3109 283.979 62.9689 283.129 65.3495C282.151 68.2403 282.236 68.4104 284.319 68.4104C287.89 68.4104 290.398 66.0297 291.334 61.6935C291.716 60.0355 291.716 59.908 290.824 59.9505C290.356 59.9505 289.081 60.2056 288.06 60.5457Z" fill="#FAFAFA"/>
<path d="M267.229 67.05C266.252 67.4326 265.401 67.9428 265.401 68.1128C265.444 68.9631 270.29 72.6616 271.991 73.1292C273.819 73.6394 277.092 73.2568 279.685 72.279L280.876 71.8114L278.878 69.9834C274.754 66.2848 271.396 65.4346 267.229 67.05Z" fill="#FAFAFA"/>
<path d="M293.034 73.5968C290.781 74.192 288.315 76.5301 286.997 79.2934C286.36 80.6112 285.977 81.8016 286.062 81.9291C286.19 82.0566 288.188 82.1842 290.441 82.1842C294.352 82.2267 294.734 82.1417 296.945 80.9088C298.688 79.8885 299.793 78.8683 301.281 76.6576C302.387 75.0422 303.237 73.7243 303.194 73.6818C302.727 73.3417 294.224 73.2567 293.034 73.5968Z" fill="#FAFAFA"/>
<path d="M272.713 78.6982C270.673 79.761 269.482 81.6315 269.227 84.1397C269.1 85.5851 269.142 85.6276 270.587 85.5001C272.458 85.3301 274.329 84.2247 275.051 82.8644C275.731 81.674 277.389 78.103 277.389 77.8905C277.389 77.3803 274.243 77.933 272.713 78.6982Z" fill="#FAFAFA"/>
<path d="M224.675 80.6113C221.486 82.6943 219.701 85.6702 220.168 88.1784C220.424 89.5813 222.677 93.0672 223.314 93.0672C223.484 93.0672 224.292 91.7919 225.057 90.1764C226.248 87.7958 226.503 86.6905 226.715 83.5871C226.928 79.5485 226.758 79.2509 224.675 80.6113Z" fill="#FAFAFA"/>
<path d="M277.942 84.9049C273.904 88.3059 271.778 89.1136 264.976 89.8788C261.873 90.2189 259.11 90.5165 258.812 90.5165C258.515 90.5165 257.919 91.4093 257.452 92.472C256.304 94.9802 254.348 97.4884 252.563 98.5512C251.798 99.0189 248.652 100.082 245.591 100.889C242.53 101.74 238.576 103.1 236.791 103.908C232.795 105.821 229.096 109.179 227.268 112.623C226.503 114.026 225.78 115.173 225.568 115.173C225.015 115.173 222.039 110.922 221.444 109.307C221.147 108.456 220.892 106.671 220.849 105.353V102.93L218.766 102.037C215.62 100.719 215.323 100.804 215.238 103.143C215.195 104.29 215.195 106.288 215.28 107.606C215.323 108.967 215.238 110.072 215.025 110.072C214.812 110.072 213.835 109.477 212.857 108.754C211.284 107.606 208.436 103.738 206.31 99.9116C205.545 98.5512 204.057 98.1261 203.164 99.0189C202.356 99.8266 203.292 104.8 204.695 107.436C206.48 110.795 208.861 113.133 213.665 116.236C219.531 120.062 221.784 123.166 223.442 129.5C224.548 133.921 224.463 134.474 223.017 131.88C220.126 126.652 216.725 123.123 212.389 120.912C211.326 120.402 208.138 119.212 205.332 118.362C202.526 117.511 198.913 116.109 197.255 115.258C193.259 113.218 188.243 108.116 185.139 102.93C183.864 100.804 182.588 99.0189 182.291 99.0189C181.993 99.0189 181.058 99.359 180.208 99.7416C178.805 100.422 178.72 100.592 178.932 101.952C179.273 104.035 181.866 109.349 184.034 112.368C185.054 113.813 187.01 116.066 188.413 117.384L190.963 119.765L189.05 120.275C186.925 120.785 183.821 122.783 184.034 123.463C184.246 124.228 188.285 125.461 190.453 125.461C191.643 125.461 193.344 125.164 194.322 124.824C196.022 124.186 196.192 124.228 201.166 125.971C203.972 126.949 207.245 128.395 208.478 129.16C211.496 131.115 214.217 134.304 215.96 137.875C217.703 141.531 219.489 148.588 219.829 153.221L220.041 156.622L217.151 158.663C214.005 160.874 206.523 164.742 204.482 165.167C203.504 165.38 204.057 164.827 207.033 162.531C213.962 157.26 216.3 155.134 215.45 154.879C206.14 151.734 198.573 146.505 184.161 133.368C174.766 124.781 169.325 120.53 164.308 117.979C143.818 107.479 121.584 114.493 111.466 134.559C105.982 145.442 106.322 161.639 112.231 173.627C121.669 192.757 139.779 205.681 162.183 209.337C169.325 210.485 180.335 210.102 188.455 208.444C197.808 206.531 203.504 204.066 216.725 196.243C226.291 190.547 231.052 187.869 236.876 184.935C244.018 181.364 244.443 181.024 262.766 164.232C277.262 150.883 282.916 146.42 288.74 143.784C297.583 139.745 306.595 141.276 309.316 147.27C310.932 150.798 310.081 153.519 306.255 157.303C300.091 163.424 290.228 168.313 271.863 174.392C254.816 180.046 240.49 185.7 235.516 188.719C234.835 189.144 231.392 191.014 227.906 192.927C220.722 196.881 204.567 206.914 193.642 214.226C179.145 223.919 169.707 229.233 162.353 231.783C158.144 233.271 151.682 234.887 151.342 234.546C151.257 234.461 152.448 233.824 154.021 233.144C158.442 231.273 168.049 226.427 172.216 223.961C176.977 221.155 183.864 216.734 183.864 216.479C183.864 216.394 181.993 216.394 179.74 216.521C177.445 216.692 172.131 216.989 167.922 217.244C149.047 218.349 136.591 222.261 129.321 229.445C124.432 234.249 122.519 238.713 122.519 245.259C122.519 249.851 123.369 252.869 125.623 256.1L126.983 258.056L155.211 257.928C170.728 257.843 183.439 257.885 183.439 258.013C183.439 258.396 179.57 261.201 177.912 262.094C175.787 263.157 170.388 263.369 166.264 262.519C163.373 261.924 158.909 261.839 132.807 261.839C103.474 261.839 102.666 261.882 102.241 262.647C101.391 264.305 102.539 264.687 109.766 265.027C113.464 265.198 117.545 265.283 118.821 265.198C120.946 265.112 121.159 265.155 120.989 265.92C120.904 266.345 120.776 269.236 120.649 272.254C120.309 281.012 121.967 286.411 127.068 293.595C129.321 296.784 129.874 297.251 129.874 295.891C129.874 295.466 130.426 294.021 131.064 292.703C131.744 291.385 132.169 290.322 131.999 290.322C131.829 290.322 130.809 288.451 129.746 286.198C126.388 279.014 125.623 271.829 127.748 267.068L128.556 265.198L142.287 265.325L156.019 265.453L160.907 267.111C163.586 268.003 167.114 268.981 168.772 269.236L171.748 269.746L169.835 270.852C166.944 272.552 165.031 272.892 158.782 272.892C152.15 272.892 148.792 273.572 145.093 275.528C138.844 278.844 134.678 284.583 131.319 294.361C129.831 298.782 129.406 306.306 130.469 309.962C131.277 312.811 134.295 317.019 136.761 318.805C138.334 319.953 138.589 320.038 139.396 319.485C140.672 318.635 140.374 317.572 138.121 315.234C137.058 314.086 135.698 312.173 135.188 310.983C134.082 308.517 133.402 304.351 134.125 304.351C134.338 304.351 134.55 304.521 134.55 304.733C134.55 305.711 138.461 309.282 143.18 312.556C149.217 316.764 149.514 317.062 150.747 319.868C151.895 322.461 151.682 325.819 150.109 329.22C149.004 331.643 149.004 332.579 150.109 333.004C152.278 333.854 154.658 329.305 154.871 323.906C155.126 317.572 153.595 314.809 146.496 309.07C139.099 303.076 137.143 300.1 137.653 295.636C138.079 291.767 142.33 285.008 145.858 282.542C149.387 280.119 151.98 279.524 159.42 279.396C167.029 279.269 169.197 278.801 173.788 276.421C175.787 275.358 177.53 273.997 179.315 271.999C181.526 269.619 182.588 268.854 185.649 267.451C190.411 265.24 194.619 262.307 199.636 257.715C208.733 249.383 225.015 238.84 241.68 230.55C251.288 225.747 258.685 222.813 270.375 219.157C275.307 217.627 282.151 215.416 285.637 214.226C289.123 213.036 292.056 212.143 292.141 212.27C292.396 212.483 281.598 217.754 277.687 219.285C275.987 219.922 271.948 221.41 268.675 222.516C261.32 224.981 252.733 228.297 252.733 228.637C252.733 228.765 253.201 229.658 253.711 230.593L254.688 232.293L258.472 232.166C281.386 231.358 299.751 226.002 315.48 215.544C328.999 206.531 339.415 193.948 344.984 179.876C352.593 160.703 351.148 141.616 340.987 126.014C333.803 115.003 322.027 106.969 309.189 104.375C304.767 103.44 294.224 103.483 289.803 104.375C274.924 107.436 259.492 116.534 243.423 131.668C240.49 134.389 238.236 136.259 238.449 135.792C240.064 131.455 245.633 125.461 255.156 117.809C258.685 114.961 261.703 112.453 261.83 112.24C262.213 111.645 259.832 111.262 257.537 111.56C250.565 112.495 245.123 115.471 239.044 121.635C235.898 124.781 235.728 124.696 236.578 120.7C238.066 113.941 240.575 111.687 249.97 108.584C256.814 106.331 260.13 103.95 263.148 99.0614C264.466 96.9358 264.934 96.5107 266.252 96.2556C269.78 95.5754 274.499 93.7899 276.922 92.1745C279.175 90.6865 283.767 85.5001 283.767 84.4373C283.767 83.9272 282.109 82.4393 281.471 82.4393C281.173 82.4393 279.558 83.5446 277.942 84.9049ZM308.423 122.825C314.29 124.483 317.563 126.396 322.07 130.903C325.386 134.176 326.491 135.579 327.894 138.47C331.082 144.847 331.592 147.185 331.592 154.922C331.592 160.236 331.422 162.361 330.785 164.7C325.853 183.065 310.762 197.774 288.4 206.064C283.086 208.062 281.216 208.529 281.216 207.892C281.216 207.637 280.493 206.659 279.643 205.681C278.793 204.746 277.262 202.408 276.242 200.495C275.222 198.582 274.499 197.476 274.584 198.071C274.712 198.667 274.882 199.729 275.009 200.452C275.307 202.323 277.177 206.234 278.495 207.807L279.6 209.124L278.368 209.592C277.73 209.847 274.244 211.08 270.63 212.355C264.296 214.566 264.041 214.651 263.233 213.928C261.235 212.185 259.237 209.762 258.174 207.764C257.324 206.234 256.984 205.894 256.984 206.531C256.984 208.104 258.515 211.845 259.917 213.801C261.15 215.544 261.235 215.714 260.513 216.011C260.087 216.181 258.004 216.989 255.836 217.839C253.711 218.647 250.862 219.837 249.545 220.433L247.164 221.538L244.868 219.752C243.593 218.775 241.935 216.989 241.17 215.799C240.319 214.481 239.724 213.886 239.639 214.268C239.469 215.246 240.957 218.435 242.658 220.688C244.358 222.898 244.443 222.771 240.83 224.599C239.554 225.279 235.856 227.277 232.625 229.02C226.291 232.421 226.928 232.336 223.74 230.55C222.55 229.913 219.616 226.597 218.723 224.854C218.383 224.216 218.086 224.004 217.958 224.344C217.661 225.279 220.254 230.168 222.082 232.081C223.017 233.101 223.825 233.951 223.825 233.994C223.825 234.036 221.402 235.567 218.468 237.395L213.112 240.711L211.156 239.69C208.733 238.415 208.691 238.415 206.523 236.502C204.354 234.674 204.184 235.099 206.055 237.65C207.543 239.733 207.798 239.988 209.498 241.306L210.689 242.199L209.498 243.049C201.931 248.32 189.05 252.401 177.912 253.124C175.702 253.252 172.726 253.464 171.323 253.549C169.92 253.677 168.092 253.634 167.242 253.507C165.754 253.252 165.966 253.124 173.023 249.553C183.141 244.409 187.01 241.773 211.496 223.366C221.147 216.139 230.074 210.315 239.129 205.383C243.72 202.875 256.304 197.434 265.699 193.82C285.297 186.381 290.526 184.042 297.158 179.834C300.176 177.878 300.771 177.666 302.897 177.666C306.765 177.708 310.039 179.664 313.567 184.127C314.8 185.7 315.225 186.041 315.608 185.573C315.948 185.148 315.778 184.595 314.843 183.277C311.952 179.366 308.636 176.858 304.937 175.965L302.939 175.455L306.17 171.884C308.211 169.631 310.039 168.101 311.059 167.675C314.503 166.315 319.689 167.208 323.09 169.844C325.938 171.969 326.448 171.374 323.94 168.866C321.092 166.017 317.819 164.742 313.907 165.04L311.059 165.21L312.122 162.829C314.248 157.855 314.503 157.515 316.883 156.282C318.796 155.347 319.774 155.134 322.282 155.134C323.94 155.134 326.151 155.432 327.129 155.772C328.149 156.112 329.084 156.325 329.212 156.155C329.764 155.645 327.086 153.902 325.003 153.476C321.942 152.796 320.029 152.924 317.351 153.859C316.076 154.327 314.928 154.667 314.8 154.709C314.673 154.709 314.545 152.924 314.46 150.713C314.333 146.802 314.333 146.717 315.608 145.229C317.308 143.359 319.179 142.466 323.005 141.786L326.066 141.233L324.153 140.723C320.794 139.745 317.266 140.723 314.545 143.316L313.227 144.549L312.079 142.636C309.699 138.555 309.954 133.453 312.717 129.542C313.865 127.969 313.44 127.502 311.909 128.65C309.869 130.138 308.381 133.071 308.083 136.174L307.786 138.98L305.235 137.747C303.79 137.109 302.344 136.047 301.962 135.451C300.729 133.581 299.496 129.33 299.496 126.864C299.496 125.164 299.326 124.526 298.901 124.526C297.158 124.526 297.413 131.625 299.283 136.089C299.538 136.769 299.241 136.854 296.137 136.854C292.949 136.854 292.652 136.769 291.249 135.579C289.463 134.006 287.933 131.455 286.955 128.48C286.53 127.247 286.062 126.354 285.85 126.481C284.659 127.204 286.232 133.156 288.4 136.259L289.633 138.045L286.997 139.235C285.595 139.873 283.979 140.383 283.426 140.298C282.236 140.213 279.43 138.937 276.965 137.45L275.052 136.259L276.837 138.385C277.815 139.533 279.09 140.765 279.685 141.106C281.131 141.871 281.088 142.381 279.388 143.529C278.665 144.039 277.177 145.059 276.157 145.739C274.754 146.717 274.031 146.972 273.181 146.76C271.948 146.462 269.27 145.144 267.612 144.081C267.017 143.699 265.784 142.934 264.849 142.338L263.148 141.318L264.721 143.231C265.571 144.294 267.442 145.994 268.845 147.057C270.248 148.12 271.396 149.055 271.438 149.183C271.438 149.438 262.298 157.855 257.324 162.234L254.773 164.402L253.243 163.807C250.65 162.744 246.654 160.661 245.123 159.471C244.358 158.875 243.848 158.705 244.061 159.046C244.996 160.618 248.057 163.594 250.097 164.912C251.288 165.677 252.308 166.443 252.265 166.57C252.223 166.91 241.17 175.923 238.151 178.091L235.728 179.834L233.475 178.686C232.285 178.048 230.372 176.645 229.266 175.583C228.119 174.52 227.226 173.882 227.226 174.18C227.226 175.072 230.117 179.239 231.477 180.301L232.795 181.322L228.544 184.17C226.206 185.743 224.08 187.018 223.825 187.018C223.187 187.018 219.999 184.935 218.426 183.447C217.406 182.555 217.023 182.385 217.023 182.852C217.023 183.66 218.894 186.551 220.041 187.528C221.019 188.336 220.764 189.144 219.574 189.144C219.149 189.144 218.723 189.399 218.596 189.697C218.511 189.994 217.661 190.589 216.768 191.057C215.833 191.525 215.025 191.992 214.897 192.162C214.77 192.29 213.877 192.8 212.899 193.268C210.646 194.458 209.328 195.138 208.521 195.563C206.438 196.711 203.929 197.731 203.122 197.774C202.611 197.816 202.314 197.944 202.399 198.029C202.697 198.326 199.466 199.644 194.619 201.217C184.799 204.363 173.406 205.851 164.946 205.043L161.12 204.703L165.881 204.406C174.936 203.853 181.951 201.855 191.516 197.179C204.907 190.674 214.047 183.15 238.704 158.45C247.929 149.225 256.942 140.553 258.685 139.15C270.928 129.287 282.194 123.591 292.481 121.975C296.563 121.338 304.767 121.805 308.423 122.825ZM150.279 132.901C152.022 133.453 154.828 134.771 156.529 135.834C160.057 138.002 168.134 145.102 168.134 145.994C168.134 146.76 165.711 148.035 165.031 147.652C164.733 147.482 163.586 146.59 162.395 145.739C158.867 143.104 154.573 141.148 151.682 140.85C149.429 140.595 149.047 140.425 148.834 139.618C148.707 139.065 147.686 137.705 146.623 136.599C145.136 134.984 144.88 134.856 145.603 135.919C146.156 136.727 146.666 138.172 146.793 139.193C146.964 141.021 146.964 141.063 145.093 141.956C144.03 142.423 142.797 143.189 142.33 143.656C141.48 144.421 141.437 144.421 140.247 143.146C138.844 141.701 137.058 140.68 135.103 140.213C133.275 139.83 133.317 140.298 135.23 141.318C136.123 141.786 137.441 143.146 138.291 144.379L139.737 146.59L139.184 149.48C138.886 151.053 138.631 152.414 138.631 152.456C138.589 152.499 137.526 152.244 136.251 151.904C133.445 151.181 131.064 151.138 128.811 151.819L127.111 152.286L130.852 152.839C137.143 153.689 138.164 154.327 140.332 158.748C141.139 160.363 142.415 162.489 143.223 163.382L144.625 165.082L142.67 166.017C140.629 167.038 137.696 169.461 138.079 169.844C138.164 169.971 139.439 169.461 140.842 168.738C144.88 166.698 147.006 166.57 148.792 168.228C149.259 168.653 150.577 169.546 151.725 170.226C153.723 171.374 153.765 171.459 153.553 173.032C153.425 173.925 152.745 175.625 152.022 176.815C151.045 178.388 150.917 178.856 151.427 178.558C152.66 177.921 154.361 175.88 155.338 173.925C155.934 172.777 156.444 172.224 156.784 172.437C157.039 172.607 157.932 172.777 158.739 172.862C159.59 172.947 160.355 173.159 160.482 173.329C160.737 173.67 161.588 173.925 162.82 174.01C164.904 174.137 165.159 178.048 163.373 181.832C162.863 182.937 162.353 184 162.268 184.255C162.14 184.468 162.608 184.213 163.246 183.617C164.563 182.427 166.604 178.601 167.072 176.475C167.327 175.157 167.412 175.115 168.9 175.413C169.792 175.54 171.705 175.71 173.236 175.71C175.787 175.753 175.999 175.838 176.254 176.815C176.764 178.601 176.679 181.237 176.042 183.32C175.404 185.53 175.829 185.998 176.807 184.127C177.53 182.767 178.677 178.856 178.89 177.028C179.017 176.008 179.315 175.71 180.505 175.455C181.313 175.285 182.673 175.157 183.524 175.2C184.374 175.243 185.224 175.157 185.394 174.987C185.564 174.817 186.244 174.69 186.925 174.69C188.498 174.69 188.965 175.88 188.965 179.919C189.008 182.81 189.05 182.937 189.603 181.874C189.943 181.237 190.368 179.621 190.496 178.261C190.921 174.52 191.261 173.925 193.089 173.542C193.982 173.372 194.917 173.202 195.129 173.202C195.384 173.202 195.64 173.074 195.767 172.947C195.895 172.777 196.66 172.564 197.468 172.437C198.275 172.309 199.296 172.097 199.763 171.927C200.783 171.501 201.294 172.309 201.294 174.435C201.294 176.39 201.761 176.05 202.484 173.627C202.782 172.692 203.292 171.587 203.632 171.119C204.142 170.439 211.029 167.675 211.369 168.058C211.454 168.143 209.286 170.481 206.523 173.287C196.277 183.66 187.435 187.656 173.661 188.166C163.246 188.506 154.956 186.848 146.623 182.767C134.38 176.773 126.048 166.57 124.305 155.517C121.712 138.852 134.465 127.714 150.279 132.901ZM154.106 146.59C156.741 147.61 158.569 149.055 166.009 156.027C173.533 163.084 179.145 168.016 181.356 169.461L183.184 170.651L176.169 170.779C168.134 170.906 163.926 170.439 158.569 168.696C151.725 166.528 146.666 162.659 144.285 157.813C142.925 155.049 142.84 150.628 144.158 148.885C146.453 145.782 149.897 144.974 154.106 146.59ZM174.341 151.819C176.552 153.944 178.337 155.942 178.337 156.24C178.337 156.92 177.019 157.685 175.829 157.685C175.361 157.685 173.363 156.112 171.11 154.029L167.242 150.331L168.645 149.14C169.41 148.46 170.132 147.95 170.218 147.907C170.303 147.907 172.173 149.65 174.341 151.819ZM190.368 165.72C194.322 168.568 194.492 169.036 191.473 169.121C189.943 169.163 177.912 161.129 177.912 160.066C177.912 159.938 178.635 159.471 179.485 159.046L181.058 158.238L183.821 160.576C185.352 161.851 188.285 164.189 190.368 165.72Z" fill="#FAFAFA"/>
<path d="M295.245 191.44C295.245 191.95 297.668 196.371 298.603 197.604C299.028 198.156 299.581 198.496 299.878 198.326C300.176 198.114 299.708 197.094 298.348 195.181C296.137 191.992 295.245 190.929 295.245 191.44Z" fill="#FAFAFA"/>
<path d="M200.869 89.2837C200.869 92.387 202.527 94.4701 205.46 95.0228C206.778 95.2778 206.82 95.2778 206.82 93.7474C206.82 90.474 205.162 88.3059 202.229 87.7107L200.869 87.4132V89.2837Z" fill="#FAFAFA"/>
<path d="M288.953 91.1541L287.508 91.7918L288.783 93.3648C291.972 97.4034 294.055 98.3812 298.433 97.956C300.091 97.8285 301.664 97.5309 301.962 97.3609C302.685 96.9358 298.051 91.8343 296.223 91.1116C294.437 90.3464 290.739 90.3889 288.953 91.1541Z" fill="#FAFAFA"/>
<path d="M191.303 96.8507C191.473 97.701 191.984 99.1464 192.494 100.082C193.216 101.399 193.812 101.867 195.257 102.292C196.277 102.59 197.68 102.717 198.36 102.547C199.763 102.292 199.763 101.867 198.403 99.0613C197.425 97.0633 195.98 96.0855 193.259 95.6604L191.006 95.3203L191.303 96.8507Z" fill="#FAFAFA"/>
<path d="M275.477 95.9155C273.309 96.4682 271.651 97.616 269.866 99.8266L267.91 102.207L269.568 102.717C271.609 103.313 275.69 103.398 277.135 102.845C278.581 102.335 281.429 99.6991 282.534 97.9136C283.044 97.0634 283.384 96.3407 283.299 96.2981C283.002 96.0006 276.327 95.703 275.477 95.9155Z" fill="#FAFAFA"/>
<path d="M102.666 103.355C102.666 105.013 105.557 108.201 108.108 109.307C110.956 110.582 114.824 109.817 116.865 107.606C118.31 105.948 116.312 105.183 113.889 106.458C112.316 107.266 109.765 107.266 108.278 106.501C107.64 106.161 106.45 105.226 105.684 104.375C104.196 102.845 102.666 102.335 102.666 103.355Z" fill="#FAFAFA"/>
<path d="M164.606 105.141C163.501 105.438 162.48 105.778 162.353 105.906C162.055 106.246 167.114 111.007 168.687 111.857C170.813 113.005 173.193 113.175 175.957 112.495C177.317 112.113 178.507 111.73 178.677 111.602C179.145 111.092 174.979 106.458 173.236 105.523C171.11 104.418 167.879 104.248 164.606 105.141Z" fill="#FAFAFA"/>
<path d="M207.075 138.597C207.756 142.041 209.754 144.081 212.432 144.081C214.09 144.081 214.132 144.039 213.835 142.891C212.985 139.448 211.624 138.087 208.393 137.492L206.82 137.194L207.075 138.597Z" fill="#FAFAFA"/>
<path d="M266.804 164.232C264.168 166.443 253.583 176.518 253.583 176.858C253.583 177.453 280.45 168.738 280.663 168.058C280.791 167.718 269.695 162.744 268.802 162.787C268.675 162.787 267.782 163.424 266.804 164.232Z" fill="#FAFAFA"/>
<path d="M241.127 233.994C218.554 245.855 206.82 254.314 197.893 265.283C194.279 269.704 192.834 270.979 188.54 273.53C187.01 274.465 183.651 277.271 181.016 279.822C174.214 286.368 174.384 286.326 162.948 286.156C154.148 286.071 153.596 286.113 151.682 287.006C149.004 288.281 146.241 291.087 144.923 293.85C143.648 296.614 143.605 298.229 144.796 298.824C146.113 299.547 146.709 299.079 147.516 296.656C148.622 293.383 151.172 291.002 154.318 290.279C156.826 289.727 158.017 289.854 164.861 291.3L167.327 291.852L164.861 292.618C159.845 294.148 156.104 297.379 154.786 301.248C153.978 303.586 153.893 307.794 154.616 308.517C156.104 310.005 157.507 308.39 157.507 305.159C157.507 302.183 159.76 298.994 162.948 297.379C163.756 296.954 166.562 295.891 169.282 294.956C177.615 292.065 180.633 290.237 186.5 284.413C188.753 282.202 191.006 280.502 193.727 278.971C195.895 277.781 197.723 276.931 197.808 277.101C197.85 277.271 197.17 279.226 196.235 281.48C193.174 289.047 188.413 295.083 183.779 297.251C182.546 297.804 179.698 298.697 177.487 299.207C170.048 300.907 165.626 303.883 163.118 308.857C161.333 312.428 160.737 315.361 161.035 319.188C161.333 323.354 162.225 325.819 165.031 330.368C166.264 332.409 167.582 334.747 167.922 335.555C169.495 339.296 167.964 344.482 164.564 346.948C162.31 348.563 162.013 349.116 162.948 350.264C164.011 351.582 165.626 351.029 168.305 348.393C171.621 345.12 172.598 342.824 172.598 338.063C172.598 334.194 172.598 334.152 170.345 329.773C167.454 324.119 166.859 322.248 166.859 319.06C166.859 315.319 167.837 312.471 169.835 310.175C172.131 307.582 175.149 306.179 180.038 305.371C184.672 304.648 187.732 303.373 191.006 300.822C193.089 299.249 196.405 295.678 198.445 292.873C199.211 291.81 199.211 291.81 198.913 293.935C198.53 296.996 196.745 302.438 195.087 305.626C194.279 307.157 192.026 310.218 190.028 312.428C185.819 317.104 184.672 319.145 184.417 322.758C184.161 326.287 184.757 327.817 186.33 327.647C187.435 327.52 187.477 327.392 187.69 324.544C187.988 320.718 188.668 319.528 192.664 315.872C195.427 313.363 196.022 312.981 196.277 313.618C196.405 314.001 196.915 315.489 197.383 316.892C197.85 318.295 198.956 321.143 199.848 323.269C201.336 326.797 201.464 327.435 201.464 331.176L201.506 335.299L198.871 340.528C196.107 346.012 195.385 348.733 196.192 350.221C196.702 351.199 197.978 351.411 198.616 350.561C198.871 350.306 199.168 349.073 199.338 347.925C199.508 346.565 200.103 345.035 201.039 343.674C204.907 337.978 206.183 333.599 205.843 326.882C205.672 323.396 205.332 321.526 204.27 318.38C202.442 312.981 202.186 309.07 203.377 304.776C206.14 294.871 206.438 293.255 207.033 286.241C207.5 280.247 207.798 278.461 208.776 276.123C210.731 271.192 214.09 267.323 219.064 264.22C220.084 263.582 221.062 263.157 221.189 263.284C221.657 263.752 219.914 268.386 217.406 273.402C213.58 281.012 212.984 283.563 212.984 292.065V299.164L211.539 300.142C209.796 301.333 207.841 304.308 207.203 306.647C206.608 308.772 207.118 313.023 208.053 314.214C208.648 314.936 208.946 315.021 209.626 314.639C210.349 314.256 210.434 313.703 210.434 310.388C210.434 306.774 210.519 306.476 211.752 304.946C212.432 304.053 213.24 303.288 213.452 303.203C213.707 303.118 214.345 304.181 214.855 305.499C216.045 308.475 219.361 314.426 220.509 315.659L221.317 316.594L217.873 318.975C214.175 321.568 212.134 323.991 210.986 327.222C209.881 330.198 210.009 331.473 211.284 331.814C212.644 332.154 212.729 332.069 213.665 329.39C214.387 327.392 216.47 324.076 216.853 324.416C216.938 324.501 216.811 325.904 216.555 327.52C215.918 332.069 216.683 337.042 218.809 341.761C220.212 344.992 225.1 352.474 225.696 352.262C225.908 352.177 226.588 350.816 227.226 349.201C228.374 346.31 228.374 346.183 227.651 345.162C225.951 342.739 223.697 337.638 223.102 334.789C221.614 327.562 224.42 322.248 233.9 314.469C238.747 310.515 241.935 305.924 244.018 299.717L244.953 297.039L247.206 299.717C250.565 303.756 251.245 305.456 251.203 310.303C251.203 313.916 251.075 314.639 249.885 317.274C248.482 320.378 248.482 321.101 249.842 321.823C250.48 322.163 250.863 322.121 251.543 321.483C252.52 320.633 254.051 317.7 254.859 315.191L255.411 313.491L255.964 314.766C256.857 316.849 256.644 321.356 255.454 326.117C253.583 333.556 254.221 337.298 258.515 343.972C259.365 345.332 260.3 347.415 260.598 348.648C261.065 350.731 261.193 350.901 262.341 350.901C263.574 350.901 263.574 350.901 263.574 348.351C263.574 346.012 263.361 345.417 261.235 341.761C259.11 338.105 258.897 337.468 258.77 334.747C258.6 332.069 258.77 331.303 260.428 327.095C262.171 322.588 262.256 322.248 262.256 317.742C262.213 314.044 262.001 312.513 261.278 310.303C259.577 305.456 255.411 297.932 252.138 293.85C248.354 289.174 247.079 286.581 246.144 281.82C244.741 274.38 243.806 270.852 242.318 266.728C238.407 256.142 237.514 253.422 237.259 251.636C237.046 250.021 237.089 249.893 237.471 250.786C240.49 257.63 241.978 259.969 245.889 264.135C253.243 271.872 254.476 274.082 255.539 281.139C257.197 292.32 258.09 294.913 262.171 300.822C264.934 304.861 268.675 308.262 273.181 310.898C277.475 313.406 278.495 314.299 279.558 316.339C280.536 318.295 280.621 322.206 279.728 324.757C278.835 327.265 278.92 328.455 279.983 328.795C283.086 329.773 285.17 320.165 282.916 315.064C281.769 312.513 279.43 310.09 276.752 308.73C270.971 305.796 265.146 299.377 263.574 294.191C263.276 293.298 263.574 293.425 265.487 295.083C268.335 297.592 270.928 298.994 275.519 300.525C280.153 302.098 282.279 303.331 284.574 305.839C286.87 308.347 288.273 311.365 288.911 315.319C289.633 319.783 288.996 322.886 285.977 329.22C283.597 334.194 283.554 334.407 283.554 337.935C283.597 340.826 283.767 341.931 284.532 343.504C285.85 346.183 288.145 348.776 290.356 350.051C292.312 351.199 293.332 351.114 293.799 349.711C294.012 349.031 293.629 348.436 291.886 346.948C288.358 343.929 286.657 339.721 287.55 336.405C287.805 335.47 289.166 332.919 290.569 330.708C293.714 325.819 294.437 323.651 294.692 318.167C294.99 312.131 293.672 307.454 290.398 303.118C289.803 302.31 289.378 301.588 289.463 301.46C289.591 301.375 290.313 301.503 291.121 301.758C293.119 302.438 295.415 304.861 296.053 306.902C296.478 308.39 296.733 308.602 297.753 308.602C301.367 308.602 298.178 301.205 293.502 298.824C292.694 298.399 290.781 297.804 289.251 297.506C287.763 297.251 284.914 296.486 282.916 295.849C280.918 295.211 278.623 294.531 277.815 294.361C275.349 293.85 271.396 291.512 269.1 289.259C266.082 286.198 264.424 282.84 262.936 276.548C261.405 270.044 259.875 266.345 256.984 262.094C255.709 260.181 255.071 258.863 255.411 258.863C256.389 258.863 260.98 261.797 262.553 263.455C263.701 264.687 264.424 266.133 265.487 269.321C268.93 279.822 273.096 285.221 280.153 288.451C283.512 289.982 287.465 290.237 292.269 289.217C300.389 287.516 304.342 288.494 307.743 292.958C309.019 294.658 310.081 294.998 310.932 293.978C311.697 293.085 311.059 291.427 309.231 289.302C305.575 285.178 301.324 283.818 293.119 284.243C286.742 284.54 284.149 283.945 280.791 281.437C278.07 279.396 275.179 275.613 274.031 272.552C272.671 269.066 272.714 269.024 276.2 270.129C278.623 270.894 279.6 271.447 280.791 272.807C284.659 277.228 288.911 278.844 296.563 278.844C300.516 278.844 302.174 279.014 304.3 279.737C309.444 281.395 314.715 286.496 316.288 291.215C317.223 294.021 316.968 298.357 315.736 300.737C314.673 302.778 311.399 305.966 307.276 308.985C301.239 313.363 299.411 316.254 299.156 321.993C298.943 326.415 299.411 328.455 301.196 331.261C302.557 333.429 303.832 333.854 304.597 332.451C304.895 331.814 304.767 331.048 303.875 329.135C302.429 326.032 302.174 323.014 303.067 320.038C303.917 317.104 305.15 315.744 310.124 312.428C316.076 308.475 317.564 307.157 319.349 304.266C321.135 301.333 321.39 301.545 321.092 305.796C320.879 309.24 319.264 312.641 316.543 315.404C315.353 316.637 314.375 317.87 314.375 318.167C314.375 318.932 315.565 320.08 316.373 320.08C317.266 320.08 321.645 315.574 323.005 313.236C325.301 309.325 325.938 302.353 324.535 296.996C324.11 295.381 324.11 295.381 327.086 292.193C332.485 286.411 335.121 279.184 334.611 271.404C334.483 269.066 334.271 266.685 334.101 266.09L333.888 265.027L343.963 265.155C352.508 265.24 354.166 265.155 355.016 264.602C356.292 263.752 356.334 262.392 355.101 261.839C354.464 261.542 343.453 261.542 323.09 261.797C295.585 262.137 291.716 262.264 288.953 262.944C286.232 263.582 285.51 263.625 283.214 263.157C277.432 261.967 270.078 257.375 263.318 250.786C258.6 246.152 255.496 241.646 252.053 234.419C250.777 231.741 249.672 229.53 249.63 229.573C249.587 229.573 245.761 231.571 241.127 233.994ZM327.851 267.238C329.892 272.552 327.979 281.395 323.6 287.261L322.537 288.664L321.135 285.986C320.284 284.413 318.414 281.99 316.501 280.077C311.272 274.848 305.363 272.51 297.285 272.467C294.607 272.467 292.949 272.212 291.249 271.617C288.741 270.639 287.295 269.491 288.698 269.491C289.123 269.491 291.674 268.726 294.352 267.791C297.073 266.855 300.049 265.92 300.984 265.708C301.919 265.495 308.168 265.325 314.885 265.283L327.044 265.24L327.851 267.238ZM237.216 281.82C239.597 291.98 237.811 300.695 232.072 306.902C228.671 310.515 225.313 313.278 225.696 312.131C225.908 311.493 225.568 310.558 224.548 308.942C221.359 303.968 219.999 299.42 219.999 293.68C219.999 289.387 220.722 286.708 223.102 282.032L224.888 278.631L225.185 286.666C225.355 291.087 225.696 295.721 225.908 296.911C226.376 299.462 228.544 305.201 229.011 305.201C229.479 305.201 231.01 301.46 231.945 297.974C232.455 295.891 232.923 292.15 233.178 287.346C233.645 278.801 233.985 274.848 234.368 273.317C234.58 272.425 234.708 272.637 235.388 274.805C235.813 276.208 236.664 279.354 237.216 281.82Z" fill="#FAFAFA"/>
<path d="M315.778 271.447C315.566 271.999 316.161 272.807 318.244 274.678C321.347 277.483 322.283 277.909 323.175 277.016C323.728 276.463 323.728 276.208 323.048 274.805C322.198 272.977 319.944 271.362 317.691 270.979C316.373 270.724 316.033 270.809 315.778 271.447Z" fill="#FAFAFA"/>
<path d="M259.153 241.051C260.853 244.154 269.015 252.019 273.819 255.207L278.113 258.013H306.001C326.959 258.013 333.931 257.885 333.931 257.503C333.931 256.483 331.21 252.869 328.787 250.573C324.366 246.492 317.479 243.687 307.829 242.071C297.923 240.413 288.698 239.69 272.969 239.435L258.132 239.18L259.153 241.051Z" fill="#FAFAFA"/>
<path d="M136.038 271.489C134.168 272.467 132.892 273.742 131.957 275.528C130.809 277.738 130.894 278.419 132.34 278.419C133.19 278.419 134.083 277.866 135.4 276.463C136.463 275.4 137.951 274.168 138.716 273.7C139.652 273.105 140.077 272.51 140.077 271.787C140.077 270.894 139.864 270.767 138.716 270.767C137.951 270.809 136.761 271.107 136.038 271.489Z" fill="#FAFAFA"/>
<path d="M295.84 292.235C295.415 293.298 296.095 294.191 298.263 295.466C300.729 296.869 302.514 299.462 302.769 301.97C303.024 304.181 303.704 304.989 304.98 304.563C306.85 303.968 306.468 300.142 304.172 296.529C302.004 293.17 296.562 290.364 295.84 292.235Z" fill="#FAFAFA"/>
<path d="M116.227 293C115.377 293.638 114.569 295.168 114.569 296.019C114.569 296.486 114.994 296.699 116.015 296.699C117.12 296.699 117.758 296.401 118.608 295.381C119.203 294.616 119.671 293.723 119.586 293.34C119.416 292.49 117.163 292.235 116.227 293Z" fill="#FAFAFA"/>
<path d="M336.056 293.085C335.588 293.638 335.631 293.978 336.353 294.913C337.331 296.274 339.244 297.294 340.137 296.954C341.072 296.571 340.817 294.658 339.669 293.51C338.521 292.32 336.864 292.15 336.056 293.085Z" fill="#FAFAFA"/>
<path d="M181.951 310.515C175.701 313.533 173.448 316.679 173.491 322.418C173.491 325.352 173.703 326.287 174.851 328.71C175.957 331.133 176.339 331.558 177.274 331.558C178.635 331.558 179.06 330.538 178.337 328.838C176.934 325.352 176.509 322.886 176.977 320.59C177.614 317.445 178.762 316.084 182.673 313.831C186.287 311.705 187.222 310.643 186.372 309.622C185.692 308.815 185.352 308.857 181.951 310.515Z" fill="#FAFAFA"/>
<path d="M266.422 313.789C265.487 314.724 265.869 315.702 267.825 317.274C270.248 319.273 270.716 320.165 271.013 323.014C271.396 327.222 274.117 327.222 274.329 323.014C274.499 319.953 273.181 317.487 270.248 315.106C267.867 313.193 267.23 312.981 266.422 313.789Z" fill="#FAFAFA"/>
<path d="M229.394 320.93L227.098 323.014L228.416 325.522C231.987 332.196 231.859 338.785 227.991 349.413C224.632 358.723 220.636 365.185 216.002 368.841C211.624 372.285 210.944 373.007 211.241 373.985C211.709 375.431 213.324 375.133 216.3 373.135C219.829 370.712 222.634 368.076 225.015 364.803L227.013 362.082L227.268 366.078C227.438 368.246 227.566 372.37 227.608 375.218C227.651 380.022 227.693 380.405 228.501 380.66C230.414 381.255 230.499 380.702 230.754 367.778C230.967 354.26 230.882 354.812 234.368 347.033C238.619 337.638 238.491 329.985 233.9 321.866C232.965 320.208 232.072 318.805 231.944 318.805C231.817 318.847 230.669 319.783 229.394 320.93Z" fill="#FAFAFA"/>
<path d="M239.002 319.102C238.279 319.783 238.832 321.313 240.234 322.673C245.123 327.392 245.804 333.344 242.02 339.083C240.617 341.294 240.405 341.889 240.83 342.399C242.318 344.184 244.443 342.484 246.611 337.765C248.099 334.534 248.142 329.985 246.781 326.329C245.208 322.121 240.405 317.657 239.002 319.102Z" fill="#FAFAFA"/>
<path d="M191.559 329.73C187.095 334.322 184.714 340.911 185.267 347.33C185.692 352.134 186.967 354.09 188.923 352.857C189.433 352.517 189.433 351.964 188.965 349.031C187.945 342.739 189.688 336.745 193.854 332.069C195.937 329.73 196.235 328.455 194.874 327.69C194.067 327.265 193.684 327.52 191.559 329.73Z" fill="#FAFAFA"/>
<path d="M264.296 328.243C263.403 329.135 263.743 330.156 265.571 332.281C269.185 336.447 271.013 342.952 270.12 348.393C269.568 351.922 269.653 352.729 270.63 353.027C271.268 353.239 271.821 353.069 272.458 352.432C273.266 351.624 273.351 350.944 273.521 346.438C273.606 342.229 273.521 340.869 272.756 338.445C271.736 335.087 269.313 331.091 267.017 329.093C265.274 327.562 265.019 327.52 264.296 328.243Z" fill="#FAFAFA"/>
<path d="M158.187 333.344C157.507 336.745 158.315 339.636 160.015 339.636C162.651 339.636 162.268 334.832 159.42 332.749C158.485 332.026 158.442 332.026 158.187 333.344Z" fill="#FAFAFA"/>
<path d="M294.65 333.556C293.374 334.832 292.992 335.937 293.204 337.978C293.289 339.168 293.502 339.466 294.48 339.551C296.478 339.806 297.583 336.702 296.69 333.344C296.35 332.154 296.053 332.154 294.65 333.556Z" fill="#FAFAFA"/>
<path d="M209.583 336.872C208.138 338.7 207.245 341.719 207.245 344.482C207.245 347.203 208.52 350.009 211.411 353.58C213.112 355.663 213.622 356.725 213.834 358.256C214.004 359.361 214.132 360.551 214.175 360.892C214.217 361.232 214.77 361.572 215.45 361.657C216.938 361.827 217.448 360.594 217.065 357.703C216.725 355.195 216.173 354.132 214.047 351.539C211.241 348.138 210.646 346.863 210.646 344.142C210.646 342.144 210.901 341.166 212.006 339.211C213.452 336.532 213.409 335.385 211.751 335.385C211.029 335.385 210.306 335.895 209.583 336.872Z" fill="#FAFAFA"/>
<path d="M248.95 339.806C248.652 340.188 248.567 341.209 248.737 342.697C249.077 345.587 248.142 347.84 245.421 350.901C242.743 353.877 241.978 355.535 241.935 358.511C241.893 360.424 242.063 361.104 242.658 361.487C243.891 362.294 244.826 361.317 245.081 358.936C245.379 356.47 245.761 355.748 248.227 352.814C250.99 349.583 251.883 347.458 251.883 343.972C251.883 340.103 250.438 338.02 248.95 339.806Z" fill="#FAFAFA"/>
<path d="M200.358 358.979C199.763 360.254 200.485 361.317 201.931 361.317C203.249 361.317 204.014 360.296 203.674 358.979C203.291 357.448 201.038 357.448 200.358 358.979Z" fill="#FAFAFA"/>
<path d="M232.625 358.681C231.647 359.744 231.732 360.977 232.923 363.357C234.793 366.971 237.939 370.287 242.785 373.773C245.124 375.431 245.889 375.643 246.697 374.835C247.844 373.688 247.249 372.455 244.784 370.754C241.425 368.459 238.194 365.143 235.856 361.572C233.305 357.661 233.433 357.788 232.625 358.681Z" fill="#FAFAFA"/>
<path d="M255.369 358.426C254.221 359.574 255.114 361.317 256.857 361.317C258.089 361.317 258.897 359.914 258.259 358.766C257.749 357.831 256.176 357.618 255.369 358.426Z" fill="#FAFAFA"/>
<path d="M75.6304 242.735L56.1022 241.95L56.2597 238.033L68.9614 238.544L56.47 232.801L56.5892 229.836L69.5024 225.087L56.8007 224.576L56.9582 220.659L76.4864 221.444L76.3075 225.893L61.5376 231.52L75.8081 238.315L75.6304 242.735Z" fill="#FAFAFA"/>
<path d="M73.5297 253.952L68.6604 254.5L69.3956 261.039L66.307 261.386L65.5718 254.847L60.4243 255.426L61.2533 262.799L58.0813 263.156L56.8143 251.887L76.2637 249.7L77.5308 260.969L74.3587 261.326L73.5297 253.952Z" fill="#FAFAFA"/>
<path d="M81.6961 280.234L78.6208 280.978L77.3966 275.916L61.4755 279.766L60.5542 275.956L76.4753 272.106L75.2512 267.044L78.3265 266.3L81.6961 280.234Z" fill="#FAFAFA"/>
<path d="M73.2025 303.136L70.3119 295.909L66.3759 296.096L64.8474 292.274L85.6297 291.532L87.3246 295.769L71.7619 309.563L70.2231 305.715L73.2025 303.136ZM75.7191 300.984L82.2603 295.322L73.6188 295.732L75.7191 300.984Z" fill="#FAFAFA"/>
<path d="M89.1998 321.641C90.7756 320.54 92.429 319.907 94.1602 319.745C95.9174 319.587 97.568 319.879 99.1121 320.621C100.682 321.369 102.002 322.507 103.072 324.037C104.323 325.827 104.961 327.716 104.984 329.704C105.007 331.692 104.395 333.52 103.148 335.19L100.565 331.495C101.073 330.593 101.283 329.672 101.195 328.731C101.118 327.806 100.774 326.908 100.164 326.036C99.5119 325.102 98.7071 324.424 97.75 324C96.8189 323.58 95.8113 323.442 94.727 323.585C93.6533 323.743 92.5811 324.197 91.5102 324.946C90.4546 325.684 89.6605 326.535 89.1278 327.5C88.6211 328.469 88.3973 329.468 88.4564 330.498C88.5414 331.531 88.9102 332.515 89.5627 333.448C90.1723 334.32 90.8984 334.951 91.7408 335.342C92.6092 335.737 93.5542 335.85 94.5758 335.683L97.1589 339.377C95.1476 339.986 93.2124 339.939 91.3533 339.234C89.5201 338.534 87.9724 337.282 86.7103 335.477C85.6407 333.947 85.0169 332.322 84.8389 330.601C84.6869 328.885 84.9791 327.235 85.7156 325.649C86.4627 324.079 87.6241 322.743 89.1998 321.641Z" fill="#FAFAFA"/>
<path d="M102.551 355.043C101.523 353.96 100.835 352.76 100.486 351.444C100.151 350.115 100.186 348.782 100.59 347.446C101.008 346.123 101.792 344.915 102.943 343.823C104.094 342.731 105.347 342.017 106.702 341.683C108.071 341.362 109.409 341.417 110.718 341.847C112.041 342.265 113.217 343.015 114.245 344.098C115.273 345.181 115.961 346.394 116.309 347.736C116.67 349.066 116.649 350.399 116.244 351.736C115.852 353.085 115.081 354.306 113.93 355.399C112.78 356.491 111.514 357.191 110.132 357.498C108.764 357.819 107.412 357.764 106.076 357.333C104.767 356.903 103.592 356.139 102.551 355.043ZM105.029 352.691C105.517 353.205 106.095 353.57 106.763 353.786C107.457 354.002 108.183 354.008 108.941 353.803C109.699 353.598 110.437 353.155 111.154 352.474C112.224 351.459 112.773 350.397 112.802 349.289C112.857 348.181 112.5 347.221 111.729 346.409C110.957 345.597 110.017 345.189 108.908 345.187C107.826 345.185 106.75 345.692 105.68 346.707C104.61 347.722 104.035 348.77 103.954 349.851C103.9 350.932 104.258 351.879 105.029 352.691Z" fill="#FAFAFA"/>
<path d="M139.099 365.445C140.628 366.579 141.506 367.964 141.735 369.598C141.99 371.228 141.494 372.882 140.248 374.561L134.825 381.869L131.677 379.533L136.783 372.652C137.506 371.678 137.81 370.753 137.693 369.876C137.588 368.984 137.108 368.221 136.254 367.587C135.399 366.953 134.522 366.709 133.623 366.856C132.75 366.998 131.953 367.557 131.229 368.531L126.124 375.411L122.976 373.075L128.082 366.195C128.805 365.221 129.108 364.295 128.991 363.418C128.886 362.527 128.406 361.764 127.552 361.13C126.682 360.484 125.798 360.235 124.899 360.381C124.026 360.524 123.228 361.082 122.505 362.057L117.399 368.937L114.251 366.601L123.496 354.144L126.643 356.481L125.525 357.987C126.32 357.763 127.143 357.734 127.995 357.902C128.862 358.08 129.677 358.453 130.442 359.02C131.416 359.744 132.13 360.599 132.583 361.586C133.047 362.558 133.205 363.582 133.058 364.658C133.996 364.239 135.009 364.095 136.096 364.228C137.199 364.372 138.199 364.777 139.099 365.445Z" fill="#FAFAFA"/>
<path d="M152.752 376.44C153.519 376.03 154.4 375.812 155.393 375.786C156.411 375.751 157.43 375.988 158.449 376.496C159.635 377.087 160.559 377.912 161.22 378.972C161.897 380.039 162.241 381.254 162.251 382.614C162.286 383.967 161.95 385.353 161.242 386.773C160.534 388.193 159.621 389.313 158.504 390.132C157.411 390.943 156.23 391.408 154.962 391.526C153.71 391.653 152.491 391.421 151.304 390.83C150.285 390.322 149.487 389.663 148.91 388.854C148.35 388.054 147.986 387.215 147.818 386.339L143.533 394.934L140.025 393.185L150.243 372.687L153.751 374.435L152.752 376.44ZM157.658 384.987C158.075 384.151 158.257 383.346 158.206 382.569C158.18 381.785 157.962 381.092 157.553 380.491C157.16 379.899 156.637 379.441 155.986 379.116C155.351 378.799 154.666 378.667 153.932 378.718C153.222 378.76 152.538 379.003 151.879 379.447C151.237 379.898 150.707 380.542 150.291 381.377C149.875 382.212 149.679 383.022 149.705 383.807C149.748 384.6 149.962 385.301 150.347 385.91C150.756 386.51 151.279 386.969 151.914 387.285C152.565 387.61 153.25 387.743 153.968 387.683C154.702 387.632 155.391 387.381 156.033 386.93C156.692 386.486 157.234 385.839 157.658 384.987Z" fill="#FAFAFA"/>
<path d="M173.147 381.016C172.499 380.778 172.03 380.377 171.74 379.813C171.474 379.238 171.453 378.644 171.679 378.031C171.904 377.417 172.301 376.986 172.869 376.738C173.462 376.478 174.082 376.468 174.731 376.706C175.379 376.944 175.836 377.35 176.102 377.925C176.392 378.489 176.425 379.078 176.199 379.691C175.974 380.304 175.565 380.741 174.973 381C174.404 381.249 173.796 381.254 173.147 381.016ZM174.324 383.417L168.975 397.978L165.296 396.626L170.644 382.065L174.324 383.417Z" fill="#FAFAFA"/>
<path d="M187.117 381.94L181.502 401.884L177.728 400.822L183.344 380.877L187.117 381.94Z" fill="#FAFAFA"/>
<path d="M206.036 398.603C205.943 399.155 205.822 399.646 205.674 400.075L194.492 398.189C194.398 399.309 194.639 400.24 195.214 400.98C195.79 401.721 196.574 402.175 197.568 402.343C199.004 402.585 200.13 402.14 200.945 401.01L205.114 401.713C204.424 403.111 203.373 404.183 201.959 404.929C200.549 405.657 198.933 405.867 197.111 405.559C195.639 405.311 194.368 404.765 193.298 403.923C192.25 403.064 191.496 401.981 191.035 400.673C190.593 399.368 190.503 397.933 190.767 396.369C191.034 394.786 191.591 393.45 192.437 392.362C193.283 391.275 194.34 390.506 195.608 390.058C196.876 389.609 198.265 389.512 199.774 389.766C201.229 390.012 202.473 390.543 203.509 391.362C204.563 392.183 205.305 393.226 205.736 394.491C206.187 395.741 206.288 397.112 206.036 398.603ZM202.219 396.823C202.368 395.826 202.143 394.974 201.543 394.267C200.946 393.542 200.141 393.094 199.128 392.923C198.171 392.762 197.312 392.919 196.55 393.397C195.809 393.859 195.279 394.593 194.957 395.599L202.219 396.823Z" fill="#FAFAFA"/>
<path d="M217.981 394.426C218.524 393.63 219.207 393.018 220.031 392.59C220.874 392.163 221.817 391.975 222.861 392.024L222.665 396.136L221.63 396.086C220.4 396.028 219.453 396.272 218.792 396.82C218.149 397.368 217.793 398.361 217.725 399.796L217.356 407.515L213.44 407.328L214.181 391.834L218.096 392.021L217.981 394.426Z" fill="#FAFAFA"/>
<path d="M244.347 387.001L246.558 406.42L242.663 406.863L240.452 387.445L244.347 387.001Z" fill="#FAFAFA"/>
<path d="M260.631 387.926C262.433 387.516 264.019 387.758 265.391 388.652C266.758 389.528 267.673 390.985 268.137 393.023L270.156 401.896L266.334 402.766L264.433 394.412C264.16 393.21 263.65 392.36 262.904 391.859C262.155 391.341 261.261 391.199 260.224 391.436C259.168 391.676 258.405 392.194 257.935 392.99C257.48 393.764 257.389 394.751 257.662 395.953L259.563 404.307L255.741 405.177L252.299 390.051L256.121 389.182L256.55 391.065C256.91 390.294 257.441 389.638 258.14 389.095C258.854 388.531 259.684 388.141 260.631 387.926Z" fill="#FAFAFA"/>
<path d="M281.73 385.087L279.17 385.993L283.27 397.581L279.522 398.907L275.422 387.319L273.759 387.908L272.685 384.872L274.348 384.284L274.086 383.545C273.451 381.75 273.494 380.249 274.216 379.043C274.938 377.838 276.337 376.897 278.415 376.221L279.517 379.336C278.614 379.636 278.042 380.006 277.802 380.448C277.562 380.889 277.588 381.523 277.881 382.35L278.096 382.957L280.656 382.051L281.73 385.087Z" fill="#FAFAFA"/>
<path d="M291.303 380.1C291.413 379.142 291.734 378.283 292.264 377.521C292.812 376.751 293.56 376.146 294.508 375.705L296.244 379.437L295.305 379.874C294.188 380.394 293.464 381.05 293.133 381.842C292.818 382.627 292.964 383.67 293.571 384.974L296.831 391.98L293.277 393.634L286.733 379.57L290.287 377.916L291.303 380.1Z" fill="#FAFAFA"/>
<path d="M303.738 379.974C302.908 378.644 302.433 377.301 302.313 375.945C302.209 374.58 302.436 373.338 302.993 372.221C303.565 371.093 304.414 370.179 305.538 369.477C306.52 368.865 307.499 368.529 308.474 368.47C309.466 368.402 310.371 368.53 311.19 368.855L310.019 366.979L313.368 364.889L321.58 378.049L318.231 380.139L317.03 378.215C316.988 379.099 316.715 379.984 316.212 380.87C315.715 381.731 314.975 382.467 313.993 383.08C312.885 383.772 311.693 384.119 310.419 384.122C309.161 384.115 307.941 383.765 306.76 383.072C305.585 382.353 304.578 381.32 303.738 379.974ZM314.125 373.559C313.621 372.751 313.032 372.161 312.36 371.788C311.678 371.4 310.973 371.223 310.247 371.259C309.511 371.278 308.834 371.48 308.217 371.866C307.599 372.251 307.123 372.757 306.788 373.384C306.453 374.011 306.302 374.721 306.335 375.515C306.374 376.283 306.641 377.062 307.135 377.854C307.629 378.646 308.222 379.244 308.914 379.648C309.613 380.027 310.322 380.211 311.042 380.202C311.778 380.182 312.447 379.985 313.049 379.61C313.666 379.224 314.151 378.713 314.501 378.076C314.842 377.423 314.993 376.713 314.954 375.945C314.905 375.162 314.629 374.366 314.125 373.559Z" fill="#FAFAFA"/>
<path d="M333.615 369.059C332.638 369.869 331.619 370.423 330.557 370.722C329.483 371.006 328.466 371.037 327.506 370.814C326.56 370.58 325.761 370.114 325.111 369.417L328.15 366.897C328.589 367.31 329.127 367.506 329.766 367.486C330.418 367.454 331.039 367.194 331.628 366.706C332.203 366.229 332.553 365.745 332.679 365.253C332.819 364.749 332.74 364.317 332.442 363.958C332.121 363.57 331.681 363.45 331.124 363.596C330.569 363.717 329.765 364.019 328.712 364.504C327.643 365.027 326.725 365.412 325.96 365.659C325.208 365.893 324.428 365.946 323.618 365.817C322.823 365.677 322.091 365.204 321.424 364.399C320.876 363.738 320.563 362.98 320.484 362.124C320.419 361.256 320.608 360.372 321.05 359.472C321.506 358.56 322.216 357.705 323.179 356.907C324.602 355.728 326.035 355.146 327.478 355.162C328.91 355.163 330.169 355.732 331.256 356.867L328.368 359.262C327.931 358.823 327.42 358.617 326.835 358.641C326.252 358.64 325.665 358.883 325.076 359.372C324.53 359.824 324.189 360.276 324.054 360.728C323.934 361.167 324.022 361.566 324.32 361.926C324.654 362.328 325.111 362.47 325.692 362.352C326.261 362.22 327.059 361.91 328.086 361.423C329.127 360.924 330.023 360.557 330.774 360.322C331.525 360.088 332.304 360.048 333.112 360.203C333.922 360.332 334.661 360.785 335.331 361.564C335.903 362.254 336.221 363.032 336.285 363.9C336.365 364.756 336.176 365.64 335.719 366.552C335.265 367.437 334.564 368.273 333.615 369.059Z" fill="#FAFAFA"/>
<path d="M339.102 346.835L344.498 352.05C344.874 352.413 345.233 352.592 345.576 352.586C345.919 352.554 346.298 352.323 346.713 351.893L347.978 350.585L350.354 352.881L348.641 354.652C346.345 357.028 344.043 357.101 341.734 354.87L336.358 349.674L335.074 351.003L332.759 348.766L334.043 347.437L331.284 344.771L334.028 341.932L336.786 344.598L339.199 342.101L341.515 344.339L339.102 346.835Z" fill="#FAFAFA"/>
<path d="M347.852 335.545C347.521 334.64 347.422 333.728 347.555 332.809C347.699 331.876 348.095 330.999 348.744 330.18L351.971 332.735L351.328 333.547C350.563 334.513 350.21 335.424 350.27 336.281C350.341 337.123 350.94 337.991 352.067 338.883L358.125 343.681L355.691 346.754L343.531 337.123L345.965 334.05L347.852 335.545Z" fill="#FAFAFA"/>
<path d="M360.482 312.48L373.726 320.555L371.671 323.926L369.998 322.906C370.309 323.686 370.418 324.529 370.325 325.434C370.226 326.314 369.929 327.16 369.433 327.973C368.802 329.009 368.028 329.794 367.112 330.329C366.179 330.853 365.15 331.089 364.024 331.036C362.891 330.958 361.735 330.559 360.555 329.84L352.786 325.103L354.826 321.756L362.118 326.202C363.17 326.843 364.143 327.076 365.037 326.899C365.916 326.714 366.632 326.166 367.186 325.258C367.75 324.334 367.913 323.438 367.676 322.572C367.423 321.697 366.77 320.938 365.718 320.297L358.427 315.851L360.482 312.48Z" fill="#FAFAFA"/>
<path d="M370.6 309.859C369.128 309.219 367.974 308.361 367.139 307.285C366.287 306.202 365.793 305 365.655 303.678C365.501 302.348 365.721 300.999 366.317 299.63C367.084 297.867 368.162 296.605 369.551 295.846C370.93 295.061 372.501 294.819 374.264 295.117L372.578 298.994C371.872 298.932 371.24 299.074 370.682 299.422C370.114 299.745 369.674 300.266 369.361 300.984C368.914 302.012 368.937 302.988 369.43 303.915C369.905 304.834 370.828 305.592 372.197 306.188C373.549 306.776 374.732 306.934 375.746 306.663C376.743 306.384 377.464 305.731 377.911 304.704C378.544 303.249 378.307 302.016 377.199 301.005L378.886 297.128C380.255 298.191 381.14 299.503 381.541 301.061C381.942 302.62 381.763 304.272 381.003 306.018C380.408 307.388 379.58 308.473 378.519 309.273C377.441 310.067 376.224 310.524 374.868 310.647C373.495 310.762 372.072 310.5 370.6 309.859Z" fill="#FAFAFA"/>
<path d="M375.91 283.472L383.086 285.667C383.585 285.82 383.987 285.816 384.29 285.655C384.581 285.471 384.813 285.093 384.988 284.522L385.521 282.782L388.68 283.748L387.959 286.104C386.992 289.264 384.974 290.374 381.904 289.434L374.755 287.247L374.214 289.014L371.135 288.072L371.676 286.305L368.008 285.183L369.163 281.407L372.831 282.53L373.847 279.21L376.926 280.152L375.91 283.472Z" fill="#FAFAFA"/>
<path d="M378.098 258.702L393.366 261.442L392.668 265.328L390.739 264.982C391.311 265.597 391.718 266.343 391.959 267.221C392.184 268.077 392.213 268.973 392.045 269.91C391.831 271.105 391.393 272.116 390.732 272.946C390.053 273.772 389.178 274.365 388.109 274.723C387.024 275.059 385.802 275.105 384.443 274.861L375.486 273.253L376.178 269.395L384.584 270.904C385.797 271.121 386.788 270.987 387.558 270.499C388.31 270.008 388.78 269.239 388.968 268.192C389.159 267.126 388.988 266.232 388.454 265.511C387.901 264.786 387.018 264.314 385.806 264.097L377.4 262.588L378.098 258.702Z" fill="#FAFAFA"/>
<path d="M381.426 247.288C380.634 246.739 380.027 246.052 379.606 245.224C379.185 244.378 379.004 243.434 379.061 242.39L383.171 242.617L383.114 243.652C383.046 244.882 383.283 245.83 383.826 246.495C384.37 247.142 385.359 247.506 386.794 247.585L394.51 248.012L394.294 251.926L378.805 251.069L379.022 247.155L381.426 247.288Z" fill="#FAFAFA"/>
<path d="M385.884 220.867C386.443 220.831 386.948 220.836 387.4 220.882L388.126 232.198C389.238 232.034 390.088 231.586 390.677 230.856C391.267 230.126 391.529 229.259 391.464 228.253C391.371 226.8 390.681 225.806 389.393 225.271L389.123 221.052C390.642 221.403 391.926 222.181 392.976 223.386C394.007 224.592 394.582 226.117 394.7 227.961C394.796 229.451 394.556 230.813 393.98 232.047C393.385 233.264 392.504 234.246 391.336 234.995C390.167 235.724 388.79 236.14 387.207 236.241C385.605 236.344 384.178 236.108 382.925 235.534C381.672 234.96 380.682 234.107 379.955 232.975C379.228 231.843 378.815 230.513 378.717 228.986C378.623 227.514 378.855 226.181 379.415 224.985C379.973 223.771 380.818 222.809 381.951 222.101C383.064 221.375 384.375 220.963 385.884 220.867ZM385.026 224.99C384.022 225.073 383.244 225.488 382.693 226.234C382.124 226.981 381.872 227.867 381.938 228.892C382 229.86 382.351 230.661 382.99 231.293C383.609 231.908 384.445 232.257 385.498 232.339L385.026 224.99Z" fill="#FAFAFA"/>
</svg>
